<mxfile host="65bd71144e">
    <diagram id="OegJ9Nn6N-6bbSoRedIr" name="ページ1">
        <mxGraphModel dx="1321" dy="511" grid="1" gridSize="10" guides="1" tooltips="1" connect="1" arrows="1" fold="1" page="1" pageScale="1" pageWidth="827" pageHeight="1169" math="1" shadow="0">
            <root>
                <mxCell id="0"/>
                <mxCell id="1" parent="0"/>
                <mxCell id="207" value="`Y`" style="text;html=1;align=center;verticalAlign=middle;resizable=0;points=[];autosize=1;strokeColor=none;fillColor=none;" parent="1" vertex="1">
                    <mxGeometry x="102" y="224.5" width="40" height="30" as="geometry"/>
                </mxCell>
                <mxCell id="216" value="" style="endArrow=none;html=1;strokeWidth=1;" parent="1" edge="1">
                    <mxGeometry width="100" relative="1" as="geometry">
                        <mxPoint x="40" y="160" as="sourcePoint"/>
                        <mxPoint x="40" y="220" as="targetPoint"/>
                    </mxGeometry>
                </mxCell>
                <mxCell id="218" value="" style="endArrow=none;html=1;strokeWidth=1;" parent="1" edge="1">
                    <mxGeometry width="100" relative="1" as="geometry">
                        <mxPoint x="39" y="260" as="sourcePoint"/>
                        <mxPoint x="39" y="320" as="targetPoint"/>
                    </mxGeometry>
                </mxCell>
                <mxCell id="219" value="" style="endArrow=none;html=1;strokeWidth=1;startArrow=none;" parent="1" source="228" edge="1">
                    <mxGeometry width="100" relative="1" as="geometry">
                        <mxPoint x="320" y="320" as="sourcePoint"/>
                        <mxPoint x="40" y="320" as="targetPoint"/>
                    </mxGeometry>
                </mxCell>
                <mxCell id="226" value="" style="endArrow=none;html=1;strokeWidth=1;startArrow=none;" parent="1" source="230" edge="1">
                    <mxGeometry width="100" relative="1" as="geometry">
                        <mxPoint x="320" y="160.5" as="sourcePoint"/>
                        <mxPoint x="40" y="161" as="targetPoint"/>
                    </mxGeometry>
                </mxCell>
                <mxCell id="229" value="" style="endArrow=none;html=1;strokeWidth=1;startArrow=none;" parent="1" source="268" target="228" edge="1">
                    <mxGeometry width="100" relative="1" as="geometry">
                        <mxPoint x="315" y="320" as="sourcePoint"/>
                        <mxPoint x="80" y="320" as="targetPoint"/>
                    </mxGeometry>
                </mxCell>
                <mxCell id="228" value="" style="ellipse;whiteSpace=wrap;html=1;aspect=fixed;fillColor=#2c2626;" parent="1" vertex="1">
                    <mxGeometry x="215" y="315" width="10" height="10" as="geometry"/>
                </mxCell>
                <mxCell id="232" value="" style="ellipse;whiteSpace=wrap;html=1;aspect=fixed;fillColor=#2c2626;" parent="1" vertex="1">
                    <mxGeometry x="274" y="156" width="10" height="10" as="geometry"/>
                </mxCell>
                <mxCell id="234" value="" style="pointerEvents=1;verticalLabelPosition=bottom;shadow=0;dashed=0;align=center;html=1;verticalAlign=top;shape=mxgraph.electrical.capacitors.capacitor_1;rotation=90;" parent="1" vertex="1">
                    <mxGeometry x="80.5" y="224.5" width="158" height="30" as="geometry"/>
                </mxCell>
                <mxCell id="242" value="" style="endArrow=none;html=1;strokeWidth=1;" parent="1" edge="1">
                    <mxGeometry width="100" relative="1" as="geometry">
                        <mxPoint x="320" y="160.5" as="sourcePoint"/>
                        <mxPoint x="320" y="160.5" as="targetPoint"/>
                    </mxGeometry>
                </mxCell>
                <mxCell id="245" value="" style="endArrow=none;html=1;strokeWidth=1;" parent="1" edge="1">
                    <mxGeometry width="100" relative="1" as="geometry">
                        <mxPoint x="320" y="320" as="sourcePoint"/>
                        <mxPoint x="320" y="320" as="targetPoint"/>
                    </mxGeometry>
                </mxCell>
                <mxCell id="255" value="`\frac{V}{\sqrt{3}}`" style="text;html=1;align=center;verticalAlign=middle;resizable=0;points=[];autosize=1;strokeColor=none;fillColor=none;" parent="1" vertex="1">
                    <mxGeometry x="-68" y="224.5" width="120" height="30" as="geometry"/>
                </mxCell>
                <mxCell id="262" value="" style="ellipse;whiteSpace=wrap;html=1;aspect=fixed;fillColor=#2c2626;" vertex="1" parent="1">
                    <mxGeometry x="155" y="316" width="10" height="10" as="geometry"/>
                </mxCell>
                <mxCell id="264" value="" style="ellipse;whiteSpace=wrap;html=1;aspect=fixed;fillColor=#2c2626;" vertex="1" parent="1">
                    <mxGeometry x="154.5" y="156" width="10" height="10" as="geometry"/>
                </mxCell>
                <mxCell id="265" value="" style="pointerEvents=1;verticalLabelPosition=bottom;shadow=0;dashed=0;align=center;html=1;verticalAlign=top;shape=mxgraph.electrical.signal_sources.source;aspect=fixed;points=[[0.5,0,0],[1,0.5,0],[0.5,1,0],[0,0.5,0]];elSignalType=ac;" vertex="1" parent="1">
                    <mxGeometry x="17" y="215" width="45" height="45" as="geometry"/>
                </mxCell>
                <mxCell id="266" value="" style="endArrow=none;html=1;strokeWidth=1;startArrow=none;" edge="1" parent="1" source="232" target="230">
                    <mxGeometry width="100" relative="1" as="geometry">
                        <mxPoint x="274" y="161" as="sourcePoint"/>
                        <mxPoint x="125" y="161" as="targetPoint"/>
                    </mxGeometry>
                </mxCell>
                <mxCell id="230" value="" style="ellipse;whiteSpace=wrap;html=1;aspect=fixed;fillColor=#2c2626;" parent="1" vertex="1">
                    <mxGeometry x="216.5" y="156" width="10" height="10" as="geometry"/>
                </mxCell>
                <mxCell id="268" value="" style="ellipse;whiteSpace=wrap;html=1;aspect=fixed;fillColor=#2c2626;" vertex="1" parent="1">
                    <mxGeometry x="274" y="315" width="10" height="10" as="geometry"/>
                </mxCell>
                <mxCell id="270" value="" style="pointerEvents=1;verticalLabelPosition=bottom;shadow=0;dashed=0;align=center;html=1;verticalAlign=top;shape=mxgraph.electrical.capacitors.capacitor_1;rotation=90;" vertex="1" parent="1">
                    <mxGeometry x="142" y="225" width="158" height="30" as="geometry"/>
                </mxCell>
                <mxCell id="272" value="" style="pointerEvents=1;verticalLabelPosition=bottom;shadow=0;dashed=0;align=center;html=1;verticalAlign=top;shape=mxgraph.electrical.capacitors.capacitor_1;rotation=90;" vertex="1" parent="1">
                    <mxGeometry x="200" y="225" width="158" height="30" as="geometry"/>
                </mxCell>
                <mxCell id="274" value="`Y`" style="text;html=1;align=center;verticalAlign=middle;resizable=0;points=[];autosize=1;strokeColor=none;fillColor=none;" vertex="1" parent="1">
                    <mxGeometry x="175" y="224.5" width="40" height="30" as="geometry"/>
                </mxCell>
                <mxCell id="275" value="`Y`" style="text;html=1;align=center;verticalAlign=middle;resizable=0;points=[];autosize=1;strokeColor=none;fillColor=none;" vertex="1" parent="1">
                    <mxGeometry x="234" y="225" width="40" height="30" as="geometry"/>
                </mxCell>
                <mxCell id="276" value="" style="rounded=0;whiteSpace=wrap;html=1;fillColor=none;dashed=1;strokeColor=#FF0000;" vertex="1" parent="1">
                    <mxGeometry x="105" y="131" width="225" height="219" as="geometry"/>
                </mxCell>
                <mxCell id="277" value="&lt;font color=&quot;#ff1010&quot;&gt;3Y&lt;/font&gt;" style="text;html=1;strokeColor=none;fillColor=none;align=center;verticalAlign=middle;whiteSpace=wrap;rounded=0;dashed=1;" vertex="1" parent="1">
                    <mxGeometry x="187.5" y="100" width="60" height="30" as="geometry"/>
                </mxCell>
            </root>
        </mxGraphModel>
    </diagram>
</mxfile>